<?xml version="1.0" encoding="UTF-8" standalone="no"?>
<!-- Created with Inkscape (http://www.inkscape.org/) -->

<svg
   width="71.164368mm"
   height="71.164368mm"
   viewBox="0 0 71.164368 71.164368"
   version="1.1"
   id="svg1"
   xml:space="preserve"
   xmlns:xlink="http://www.w3.org/1999/xlink"
   xmlns="http://www.w3.org/2000/svg"
   xmlns:svg="http://www.w3.org/2000/svg">

  <style
   id="style1">
    svg { color: black; }
    @media (prefers-color-scheme: dark) {
      svg { color: white; }
    }
  </style>

  <defs
   id="defs1"><marker
     style="overflow:visible"
     id="marker51"
     refX="0"
     refY="0"
     orient="auto-start-reverse"
     markerWidth="1"
     markerHeight="1"
     viewBox="0 0 1 1"
     preserveAspectRatio="xMidYMid">
      <path
   style="fill:none;stroke:currentColor;stroke-width:1;stroke-linecap:round"
   d="M 3,-3 0,0 3,3"
   transform="rotate(180,0.125,0)"
   id="path1" />
    </marker><marker
     style="overflow:visible"
     id="ArrowWideRounded"
     refX="0"
     refY="0"
     orient="auto-start-reverse"
     markerWidth="1"
     markerHeight="1"
     viewBox="0 0 1 1"
     preserveAspectRatio="xMidYMid">
      <path
   style="fill:none;stroke:currentColor;stroke-width:1;stroke-linecap:round"
   d="M 3,-3 0,0 3,3"
   transform="rotate(180,0.125,0)"
   id="path2" />
    </marker><mask
     id="holes">
      <rect
   x="-60"
   y="-60"
   width="120"
   height="120"
   fill="#ffffff"
   id="rect2" />
      <circle
   id="hole"
   cy="-40"
   r="3"
   cx="0" />
      <use
   xlink:href="#hole"
   transform="rotate(72)"
   id="use2" />
      <use
   xlink:href="#hole"
   transform="rotate(144)"
   id="use3" />
      <use
   xlink:href="#hole"
   transform="rotate(-144)"
   id="use4" />
      <use
   xlink:href="#hole"
   transform="rotate(-72)"
   id="use5" />
    </mask><linearGradient
     id="linearGradient2795"><stop
       style="stop-color:#b8b8b8;stop-opacity:0.49803922;"
       offset="0"
       id="stop2797" /><stop
       style="stop-color:#7f7f7f;stop-opacity:0;"
       offset="1"
       id="stop2799" /></linearGradient><linearGradient
     id="linearGradient4671"><stop
       style="stop-color:#ffd43b;stop-opacity:1;"
       offset="0"
       id="stop4673" /><stop
       style="stop-color:#ffe873;stop-opacity:1"
       offset="1"
       id="stop4675" /></linearGradient><linearGradient
     id="linearGradient4689"><stop
       style="stop-color:#5a9fd4;stop-opacity:1;"
       offset="0"
       id="stop4691" /><stop
       style="stop-color:#306998;stop-opacity:1;"
       offset="1"
       id="stop4693" /></linearGradient><linearGradient
     xlink:href="#linearGradient4671"
     id="linearGradient1475"
     gradientUnits="userSpaceOnUse"
     gradientTransform="matrix(0.562541,0,0,0.567972,-9.399749,-5.305317)"
     x1="150.96111"
     y1="192.35176"
     x2="112.03144"
     y2="137.27299" /><linearGradient
     xlink:href="#linearGradient4689"
     id="linearGradient1478"
     gradientUnits="userSpaceOnUse"
     gradientTransform="matrix(0.562541,0,0,0.567972,-9.399749,-5.305317)"
     x1="26.648937"
     y1="20.603781"
     x2="135.66525"
     y2="114.39767" /><radialGradient
     xlink:href="#linearGradient2795"
     id="radialGradient1480"
     gradientUnits="userSpaceOnUse"
     gradientTransform="matrix(2.382716e-8,-0.296405,1.43676,4.683673e-7,-128.544,150.5202)"
     cx="61.518883"
     cy="132.28575"
     fx="61.518883"
     fy="132.28575"
     r="29.036913" /></defs>

  <g
   id="layer1"
   transform="translate(-65.028617,-58.75453)">
    <!-- Rotating circle -->
    <circle
   id="rotating-circle"
   style="fill:none;stroke:currentColor;stroke-width:2;stroke-linecap:round;stroke-dasharray:2, 4;paint-order:stroke markers fill"
   cx="100.61095"
   cy="94.336861"
   r="34.582191">
      <animateTransform
   attributeName="transform"
   attributeType="XML"
   type="rotate"
   from="0 100.61095 94.336861"
   to="360 100.61095 94.336861"
   dur="20s"
   repeatCount="indefinite" />
    </circle>

    <g
   transform="translate(0.76716243,1.7261155)"
   id="g17">
      <!-- Folder icon -->
      <g
   style="fill:none;stroke:currentColor;stroke-width:2;stroke-linecap:round;stroke-linejoin:round"
   transform="matrix(0.49795083,0,0,0.61513099,93.231333,69.215737)"
   id="g8">
        <path
   d="M 4,12.15 V 4 A 2,2 0 0 1 6,2 h 8 a 2.4,2.4 0 0 1 1.706,0.706 l 3.588,3.588 A 2.4,2.4 0 0 1 20,8 v 12 a 2,2 0 0 1 -2,2 h -3.35"
   id="path5" />
        <path
   d="m 14,2 v 5 a 1,1 0 0 0 1,1 h 5"
   id="path6" />
        <path
   d="m 5,16 -3,3 3,3"
   id="path7" />
        <path
   d="M 9,22 12,19 9,16"
   id="path8" />
      </g>

      <!-- Arrows  line -->
      <g
   transform="matrix(0.49744125,0,0,0.49744125,49.004578,15.119826)"
   id="g10">
        <path
   style="fill:none;stroke:currentColor;stroke-width:0.889;stroke-dasharray:3.556, 0.889;marker-end:url(#marker51)"
   d="m 92.941302,126.05832 c -22.646375,16.53701 -34.978445,34.30019 0,57.6877"
   id="path9" />
        <path
   style="fill:none;stroke:currentColor;stroke-width:0.889;stroke-dasharray:3.556, 0.889;marker-start:url(#ArrowWideRounded)"
   d="m 110.51005,126.69477 c 26.3269,20.93385 30.18667,40.413 0,57.6877"
   id="path10" />
      </g>

      <!-- Barcode–like icon -->
      <g
   style="fill:none;stroke:currentColor;stroke-width:2;stroke-linecap:round;stroke-linejoin:round"
   transform="matrix(0.52623205,0,0,0.52623205,93.525974,100.58814)"
   id="g14">
        <rect
   x="14"
   y="14"
   width="4"
   height="6"
   rx="2"
   id="rect10" />
        <rect
   x="6"
   y="4"
   width="4"
   height="6"
   rx="2"
   id="rect11" />
        <path
   d="m 6,20 h 4"
   id="path11" />
        <path
   d="m 14,10 h 4"
   id="path12" />
        <path
   d="m 6,14 h 2 v 6"
   id="path13" />
        <path
   d="m 14,4 h 2 v 6"
   id="path14" />
      </g>

      <!-- Double arrow -->
      <g
   style="fill:none;stroke:currentColor;stroke-width:2;stroke-linecap:round;stroke-linejoin:round"
   transform="matrix(0.60706656,0,0,0.60706656,92.095682,85.994516)"
   id="g16">
        <path
   d="M 16,18 22,12 16,6"
   id="path15" />
        <path
   d="m 8,6 -6,6 6,6"
   id="path16" />
      </g>
    </g>
  </g>
<path
   d="m 38.399679,36.22055 -0.266515,-0.164994 a 3.6318825,3.6318825 0 0 0 -0.0075,-0.07768 l 0.229025,-0.213492 a 0.09215437,0.09215437 0 0 0 -0.03053,-0.152929 l -0.292787,-0.109538 a 2.2478471,2.2478471 0 0 0 -0.02302,-0.07556 L 38.19102,35.172701 A 0.09159875,0.09159875 0 0 0 38.1313,35.028609 l -0.308584,-0.05011 a 2.4758121,2.4758121 0 0 0 -0.03723,-0.06937 l 0.129646,-0.284718 a 0.09093729,0.09093729 0 0 0 -0.0072,-0.08893 0.09223375,0.09223375 0 0 0 -0.07953,-0.04075 l -0.313399,0.01101 a 1.7844558,1.7844558 0 0 0 -0.04956,-0.06001 l 0.07205,-0.305065 a 0.09186333,0.09186333 0 0 0 -0.110331,-0.110384 l -0.305117,0.07207 a 3.7090085,3.7090085 0 0 0 -0.06027,-0.04956 l 0.01098,-0.313399 a 0.09106958,0.09106958 0 0 0 -0.129646,-0.08678 l -0.284692,0.12991 c -0.02307,-0.01259 -0.04609,-0.02519 -0.0694,-0.03723 l -0.05035,-0.308849 a 0.09215437,0.09215437 0 0 0 -0.144119,-0.05972 l -0.25392,0.182695 a 2.2454394,2.2454394 0 0 0 -0.07554,-0.02275 l -0.109537,-0.292788 a 0.09215437,0.09215437 0 0 0 -0.152956,-0.03053 l -0.213492,0.229288 a 2.4589317,2.4589317 0 0 0 -0.07768,-0.0075 l -0.164994,-0.266542 a 0.09159875,0.09159875 0 0 0 -0.155893,0 l -0.164994,0.266515 a 3.6349252,3.6349252 0 0 0 -0.07768,0.0075 l -0.213756,-0.229288 a 0.09159875,0.09159875 0 0 0 -0.152929,0.03053 l -0.109564,0.292762 c -0.02545,0.0072 -0.05035,0.015 -0.07554,0.02275 l -0.253699,-0.182637 a 0.09215437,0.09215437 0 0 0 -0.144119,0.05974 l -0.05035,0.308822 a 2.4758121,2.4758121 0 0 0 -0.06937,0.03723 l -0.284744,-0.12991 a 0.09159875,0.09159875 0 0 0 -0.129646,0.08678 l 0.01101,0.313399 a 2.1120629,2.1120629 0 0 0 -0.06027,0.04956 l -0.305091,-0.0721 a 0.09186333,0.09186333 0 0 0 -0.110358,0.110357 l 0.07178,0.305092 c -0.01662,0.01984 -0.03321,0.03993 -0.04929,0.06001 l -0.313399,-0.01098 a 0.09159875,0.09159875 0 0 0 -0.08678,0.129646 l 0.129911,0.284718 a 2.4254354,2.4254354 0 0 0 -0.03723,0.06937 l -0.308557,0.05011 a 0.09215437,0.09215437 0 0 0 -0.05974,0.144092 l 0.182668,0.253656 a 3.5197521,3.5197521 0 0 0 -0.02302,0.07554 l -0.292761,0.109538 a 0.09215437,0.09215437 0 0 0 -0.03056,0.152955 l 0.229023,0.213519 a 2.4589317,2.4589317 0 0 0 -0.0075,0.07766 l -0.266515,0.164995 a 0.09106958,0.09106958 0 0 0 0,0.155892 l 0.266515,0.164994 c 0.0021,0.02598 0.0048,0.05196 0.0075,0.07768 l -0.229023,0.213757 a 0.09159875,0.09159875 0 0 0 0.03056,0.152929 l 0.292761,0.109564 c 0.0072,0.02545 0.015,0.05064 0.02302,0.07554 l -0.182668,0.253656 a 0.09133417,0.09133417 0 0 0 0.06001,0.144119 l 0.308557,0.05009 c 0.01206,0.02328 0.02439,0.04633 0.03725,0.06937 l -0.129911,0.284744 a 0.09159875,0.09159875 0 0 0 0.08678,0.129646 l 0.313107,-0.01098 c 0.01635,0.02035 0.03268,0.04043 0.04956,0.06025 l -0.07178,0.305355 a 0.09159875,0.09159875 0 0 0 0.110357,0.110093 l 0.305065,-0.07178 c 0.01984,0.01688 0.03995,0.0332 0.0603,0.04929 l -0.01098,0.313399 a 0.09106958,0.09106958 0 0 0 0.129646,0.08652 l 0.284717,-0.129646 c 0.02302,0.01286 0.04606,0.02516 0.06937,0.03723 l 0.05035,0.308557 a 0.09215437,0.09215437 0 0 0 0.144119,0.06001 l 0.253656,-0.182669 a 2.4603604,2.4603604 0 0 0 0.07554,0.02302 l 0.109538,0.292788 a 0.09133417,0.09133417 0 0 0 0.152955,0.03053 l 0.213757,-0.229023 c 0.02572,0.0029 0.0517,0.0054 0.07768,0.0078 l 0.164994,0.266514 a 0.09186333,0.09186333 0 0 0 0.155893,0 l 0.164994,-0.266516 c 0.02598,-0.0024 0.05196,-0.0048 0.07768,-0.0078 l 0.213492,0.229025 a 0.09215437,0.09215437 0 0 0 0.152929,-0.03053 l 0.109564,-0.292788 a 2.2390629,2.2390629 0 0 0 0.07554,-0.02302 l 0.253656,0.182668 a 0.09133417,0.09133417 0 0 0 0.144118,-0.06001 l 0.05035,-0.308557 c 0.02328,-0.01206 0.04633,-0.02463 0.06937,-0.03723 l 0.284745,0.129646 a 0.09186333,0.09186333 0 0 0 0.129646,-0.08652 l -0.01098,-0.313399 a 1.7797727,1.7797727 0 0 0 0.05998,-0.04929 l 0.305091,0.07178 a 0.09186333,0.09186333 0 0 0 0.110358,-0.110066 l -0.07178,-0.305382 c 0.01662,-0.01982 0.03321,-0.0399 0.04929,-0.06027 l 0.313399,0.01098 a 0.09106958,0.09106958 0 0 0 0.08678,-0.129646 l -0.129646,-0.284691 c 0.01257,-0.02307 0.02516,-0.04609 0.03723,-0.0694 l 0.308557,-0.05009 a 0.09215437,0.09215437 0 0 0 0.05974,-0.144119 l -0.182669,-0.253656 0.02302,-0.07554 0.292788,-0.109538 a 0.09159875,0.09159875 0 0 0 0.03053,-0.152955 l -0.229024,-0.213757 c 0.0027,-0.02572 0.0053,-0.0517 0.0075,-0.07768 l 0.266513,-0.164994 a 0.09106958,0.09106958 0 0 0 0,-0.155892 z m -1.783636,2.21062 a 0.18885958,0.18885958 0 0 1 0.07901,-0.369358 0.1889125,0.1889125 0 1 1 -0.0793,0.369358 z m -0.09054,-0.612299 a 0.17171458,0.17171458 0 0 0 -0.204127,0.132292 l -0.09454,0.441457 c -0.291968,0.132557 -0.616082,0.206243 -0.957607,0.206243 a 2.3116117,2.3116117 0 0 1 -0.977661,-0.215371 l -0.09456,-0.441431 a 0.17145,0.17145 0 0 0 -0.204099,-0.132027 l -0.389731,0.08356 A 2.30759,2.30759 0 0 1 33.40175,37.655998 h 1.896428 c 0.02143,0 0.03588,-0.0037 0.03588,-0.02328 v -0.670984 c 0,-0.01958 -0.01418,-0.02331 -0.03588,-0.02331 h -0.554724 v -0.42537 h 0.599996 c 0.05464,0 0.292761,0.01553 0.368829,0.319828 0.02384,0.09348 0.07607,0.398039 0.111972,0.495538 0.03561,0.109273 0.18079,0.327581 0.335624,0.327581 h 0.944986 a 0.19822583,0.19822583 0 0 0 0.03429,-0.0035 2.3249996,2.3249996 0 0 1 -0.214816,0.252042 z m -2.623133,0.603198 a 0.1889125,0.1889125 0 1 1 -0.0793,-0.369359 0.1889125,0.1889125 0 0 1 0.0793,0.369359 z m -0.719455,-2.917508 a 0.18883312,0.18883312 0 1 1 -0.345016,0.15322 0.18883312,0.18883312 0 0 1 0.345016,-0.153194 z m -0.22098,0.524219 0.406056,-0.180552 a 0.17197917,0.17197917 0 0 0 0.08731,-0.227144 l -0.08356,-0.189098 h 0.32893 v 1.482328 h -0.663496 a 2.3217981,2.3217981 0 0 1 -0.07498,-0.885825 z m 1.781784,-0.143854 v -0.43688 h 0.783193 c 0.04048,0 0.285538,0.04688 0.285538,0.230108 0,0.152136 -0.188039,0.206772 -0.342582,0.206772 z m 2.846229,0.393224 c 0,0.05786 -0.0021,0.115437 -0.0064,0.172244 h -0.238125 c -0.02381,0 -0.03347,0.0155 -0.03347,0.03908 v 0.109272 c 0,0.25744 -0.145177,0.313426 -0.272415,0.327608 -0.121073,0.01368 -0.255269,-0.05062 -0.271859,-0.124804 -0.07154,-0.401797 -0.190447,-0.487786 -0.378486,-0.6359 0.233283,-0.14814 0.475985,-0.366713 0.475985,-0.659209 0,-0.315807 -0.216694,-0.514827 -0.364305,-0.61259 -0.207036,-0.136605 -0.436324,-0.16391 -0.49821,-0.16391 h -2.462398 a 2.3190994,2.3190994 0 0 1 1.298311,-0.732869 l 0.290353,0.304535 a 0.17145,0.17145 0 0 0 0.242941,0.0056 l 0.324644,-0.310704 a 2.3217981,2.3217981 0 0 1 1.588664,1.131411 l -0.22233,0.502232 a 0.17250833,0.17250833 0 0 0 0.08731,0.227145 l 0.428043,0.190182 c 0.0075,0.07607 0.01125,0.152665 0.01125,0.230638 z m -2.460784,-2.539815 a 0.18860053,0.18860053 0 1 1 0.26035,0.272944 0.18883312,0.18883312 0 0 1 -0.26035,-0.272944 z m 2.206334,1.775354 a 0.18803937,0.18803937 0 0 1 0.248576,-0.09591 0.18883312,0.18883312 0 1 1 -0.248841,0.09618 z"
   id="path1-2"
   style="stroke-width:0.264583" /><g
   id="g18"
   transform="matrix(0.10005095,0,0,0.10005095,46.67833,51.706073)"><path
     id="Shadow"
     d="m 71.09,20.74 c -0.16,-0.17 -0.33,-0.34 -0.5,-0.5 -0.17,-0.16 -0.33,-0.34 -0.5,-0.5 -0.17,-0.16 -0.33,-0.34 -0.5,-0.5 -0.17,-0.16 -0.33,-0.34 -0.5,-0.5 -0.17,-0.16 -0.33,-0.34 -0.5,-0.5 -0.17,-0.16 -0.33,-0.34 -0.5,-0.5 -0.17,-0.16 -0.33,-0.34 -0.5,-0.5 A 26.46,26.46 0 0 1 75.5,35.7 C 75.5,52.27 58.68,65.75 38,65.75 26.42,65.75 16.06,61.52 9.17,54.89 l 0.5,0.5 0.5,0.5 0.5,0.5 0.5,0.5 0.5,0.5 0.5,0.5 0.5,0.5 c 6.88,6.91 17.47,11.36 29.33,11.36 20.68,0 37.5,-13.48 37.5,-30 0,-7.06 -3.04,-13.75 -8.41,-19.01 z" /><g
     id="Body"><path
       id="Background"
       d="M 73,35.7 C 73,50.91 57.33,63.24 38,63.24 18.67,63.24 3,50.91 3,35.7 3,26.27 9,17.94 18.22,13 27.44,8.06 33.18,3 38,3 42.82,3 46.94,7.13 57.78,13 67,17.94 73,26.27 73,35.7 Z"
       style="fill:#fbf0df" /><path
       id="Bottom_Shadow"
       data-name="Bottom Shadow"
       d="M 73,35.7 A 21.67,21.67 0 0 0 72.2,29.92 C 69.47,63.22 28.85,64.82 12.88,54.86 A 40,40 0 0 0 38,63.24 c 19.3,0 35,-12.35 35,-27.54 z"
       style="fill:#f6dece" /><path
       id="Light_Shine"
       data-name="Light Shine"
       d="M 24.53,11.17 C 29,8.49 34.94,3.46 40.78,3.45 A 9.29,9.29 0 0 0 38,3 c -2.42,0 -5,1.25 -8.25,3.13 -1.13,0.66 -2.3,1.39 -3.54,2.15 -2.33,1.44 -5,3.07 -8,4.7 C 8.69,18.13 3,26.62 3,35.7 3,36.1 3,36.5 3,36.89 9.06,15.48 20.07,13.85 24.53,11.17 Z"
       style="fill:#fffefc" /><path
       id="Top"
       d="M 35.12,5.53 A 16.41,16.41 0 0 1 29.49,18 c -0.28,0.25 -0.06,0.73 0.3,0.59 3.37,-1.31 7.92,-5.23 6,-13.14 C 35.71,5 35.12,5.12 35.12,5.53 Z m 2.27,0 A 16.24,16.24 0 0 1 39,19 c -0.12,0.35 0.31,0.65 0.55,0.36 C 41.74,16.56 43.65,11 37.93,5 37.64,4.74 37.19,5.14 37.39,5.49 Z M 40.15,5.36 A 16.42,16.42 0 0 1 47,17.12 0.33,0.33 0 0 0 47.65,17.23 C 48.57,13.74 48.05,7.79 40.48,4.7 40.08,4.54 39.82,5.08 40.15,5.32 Z m -18.46,10.4 a 16.94,16.94 0 0 0 10.47,-9 c 0.18,-0.36 0.75,-0.22 0.66,0.18 -1.73,8 -7.52,9.67 -11.12,9.45 -0.38,0.01 -0.37,-0.52 -0.01,-0.63 z"
       style="fill:#ccbea7;fill-rule:evenodd" /><path
       id="Outline"
       d="M 38,65.75 C 17.32,65.75 0.5,52.27 0.5,35.7 c 0,-10 6.18,-19.33 16.53,-24.92 3,-1.6 5.57,-3.21 7.86,-4.62 1.26,-0.78 2.45,-1.51 3.6,-2.19 C 32,1.89 35,0.5 38,0.5 c 3,0 5.62,1.2 8.9,3.14 1,0.57 2,1.19 3.07,1.87 2.49,1.54 5.3,3.28 9,5.27 C 69.32,16.37 75.5,25.69 75.5,35.7 75.5,52.27 58.68,65.75 38,65.75 Z M 38,3 c -2.42,0 -5,1.25 -8.25,3.13 -1.13,0.66 -2.3,1.39 -3.54,2.15 -2.33,1.44 -5,3.07 -8,4.7 C 8.69,18.13 3,26.62 3,35.7 3,50.89 18.7,63.25 38,63.25 57.3,63.25 73,50.89 73,35.7 73,26.62 67.31,18.13 57.78,13 54,11 51.05,9.12 48.66,7.64 47.57,6.97 46.57,6.35 45.66,5.8 42.63,4 40.42,3 38,3 Z" /></g><g
     id="Mouth"><g
       id="Background-2"
       data-name="Background"><path
         d="m 45.05,43 a 8.93,8.93 0 0 1 -2.92,4.71 6.81,6.81 0 0 1 -4,1.88 A 6.84,6.84 0 0 1 34,47.71 8.93,8.93 0 0 1 31.12,43 0.72,0.72 0 0 1 31.92,42.19 H 44.26 A 0.72,0.72 0 0 1 45.05,43 Z"
         style="fill:#b71422"
         id="path1-22" /></g><g
       id="Tongue"><path
         id="Background-3"
         data-name="Background"
         d="m 34,47.79 a 6.91,6.91 0 0 0 4.12,1.9 6.91,6.91 0 0 0 4.11,-1.9 10.63,10.63 0 0 0 1,-1.07 6.83,6.83 0 0 0 -4.9,-2.31 6.15,6.15 0 0 0 -5,2.78 c 0.23,0.21 0.43,0.41 0.67,0.6 z"
         style="fill:#ff6164" /><path
         id="Outline-2"
         data-name="Outline"
         d="m 34.16,47 a 5.36,5.36 0 0 1 4.19,-2.08 6,6 0 0 1 4,1.69 c 0.23,-0.25 0.45,-0.51 0.66,-0.77 A 7,7 0 0 0 38.3,43.91 6.36,6.36 0 0 0 33.41,46.27 9.53,9.53 0 0 0 34.16,47 Z" /></g><path
       id="Outline-3"
       data-name="Outline"
       d="m 38.09,50.19 a 7.42,7.42 0 0 1 -4.45,-2 9.52,9.52 0 0 1 -3.11,-5.05 1.2,1.2 0 0 1 0.26,-1 1.41,1.41 0 0 1 1.13,-0.51 h 12.34 a 1.44,1.44 0 0 1 1.13,0.51 1.19,1.19 0 0 1 0.25,1 v 0 a 9.52,9.52 0 0 1 -3.11,5.05 7.42,7.42 0 0 1 -4.44,2 z m -6.17,-7.4 c -0.16,0 -0.2,0.07 -0.21,0.09 a 8.29,8.29 0 0 0 2.73,4.37 6.23,6.23 0 0 0 3.65,1.75 6.28,6.28 0 0 0 3.65,-1.73 8.3,8.3 0 0 0 2.72,-4.37 0.21,0.21 0 0 0 -0.2,-0.09 z" /></g><g
     id="Face"><ellipse
       id="Right_Blush"
       data-name="Right Blush"
       cx="53.220001"
       cy="40.18"
       rx="5.8499999"
       ry="3.4400001"
       style="fill:#febbd0" /><ellipse
       id="Left_Bluch"
       data-name="Left Bluch"
       cx="22.950001"
       cy="40.18"
       rx="5.8499999"
       ry="3.4400001"
       style="fill:#febbd0" /><path
       id="Eyes"
       d="m 25.7,38.8 a 5.51,5.51 0 1 0 -5.5,-5.51 5.51,5.51 0 0 0 5.5,5.51 z m 24.77,0 A 5.51,5.51 0 1 0 45,33.29 5.5,5.5 0 0 0 50.47,38.8 Z"
       style="fill-rule:evenodd" /><path
       id="Iris"
       d="M 24,33.64 A 2.07,2.07 0 1 0 21.94,31.57 2.07,2.07 0 0 0 24,33.64 Z m 24.77,0 a 2.07,2.07 0 1 0 -2.06,-2.07 2.07,2.07 0 0 0 2.04,2.07 z"
       style="fill:#ffffff;fill-rule:evenodd" /></g></g><g
   style="fill:#8cc84b"
   id="g19"
   transform="matrix(0.17664325,0,0,0.17664325,32.406058,57.031109)"><path
     d="m 14.656,0.427 c 0.8,-0.453 1.82,-0.455 2.6,0 L 29.2,7.16 c 0.747,0.42 1.247,1.253 1.24,2.114 v 13.5 c 0.005,0.897 -0.544,1.748 -1.332,2.16 l -11.88,6.702 a 2.6,2.6 0 0 1 -2.639,-0.073 l -3.565,-2.06 c -0.243,-0.145 -0.516,-0.26 -0.688,-0.495 0.152,-0.204 0.422,-0.23 0.642,-0.32 0.496,-0.158 0.95,-0.4 1.406,-0.656 0.115,-0.08 0.256,-0.05 0.366,0.022 l 3.04,1.758 c 0.217,0.125 0.437,-0.04 0.623,-0.145 l 11.665,-6.583 c 0.144,-0.07 0.224,-0.222 0.212,-0.38 V 9.334 C 28.306,9.154 28.203,8.99 28.04,8.917 L 16.19,2.244 A 0.41,0.41 0 0 0 15.725,2.243 L 3.892,8.93 c -0.16,0.073 -0.27,0.235 -0.25,0.415 v 13.37 c -0.014,0.158 0.07,0.307 0.215,0.375 l 3.162,1.785 c 0.594,0.32 1.323,0.5 1.977,0.265 A 1.5,1.5 0 0 0 9.967,23.731 L 9.97,10.441 c -0.014,-0.197 0.172,-0.36 0.363,-0.34 h 1.52 c 0.2,-0.005 0.357,0.207 0.33,0.405 L 12.18,23.88 c 10e-4,1.188 -0.487,2.48 -1.586,3.063 -1.354,0.7 -3.028,0.553 -4.366,-0.12 l -3.4,-1.88 c -0.8,-0.4 -1.337,-1.264 -1.332,-2.16 V 9.283 A 2.46,2.46 0 0 1 2.778,7.142 Z M 18.1,9.785 c 1.727,-0.1 3.576,-0.066 5.13,0.785 1.203,0.652 1.87,2.02 1.892,3.358 -0.034,0.18 -0.222,0.28 -0.394,0.267 -0.5,-10e-4 -1.002,0.007 -1.504,-0.003 -0.213,0.008 -0.336,-0.188 -0.363,-0.376 -0.144,-0.64 -0.493,-1.273 -1.095,-1.582 -0.924,-0.463 -1.996,-0.44 -3.004,-0.43 -0.736,0.04 -1.527,0.103 -2.15,0.535 -0.48,0.328 -0.624,1 -0.453,1.522 0.16,0.383 0.603,0.506 0.964,0.62 2.082,0.544 4.287,0.5 6.33,1.207 0.845,0.292 1.672,0.86 1.962,1.745 0.378,1.186 0.213,2.604 -0.63,3.556 -0.684,0.784 -1.68,1.2 -2.675,1.442 -1.323,0.295 -2.695,0.302 -4.038,0.17 -1.263,-0.144 -2.577,-0.476 -3.552,-1.336 -0.834,-0.724 -1.24,-1.852 -1.2,-2.94 0.01,-0.184 0.193,-0.312 0.37,-0.297 h 1.5 c 0.202,-0.014 0.35,0.16 0.36,0.35 0.093,0.6 0.322,1.25 0.854,1.6 1.026,0.662 2.313,0.616 3.487,0.635 0.973,-0.043 2.065,-0.056 2.86,-0.7 0.42,-0.367 0.543,-0.98 0.43,-1.508 -0.123,-0.446 -0.6,-0.653 -1,-0.8 -2.055,-0.65 -4.285,-0.414 -6.32,-1.15 -0.826,-0.292 -1.625,-0.844 -1.942,-1.693 -0.443,-1.2 -0.24,-2.687 0.693,-3.607 0.9,-0.915 2.22,-1.268 3.47,-1.394 z"
     id="path1-8" /></g><g
   id="g20"
   transform="matrix(0.23636794,0,0,0.23636794,21.572198,5.7579942)"><path
     d="M 19.153,2.35 V 2.5 a 3.2,3.2 0 1 1 -6.4,0 v 0 -0.15 H 2 V 30.269 H 29.919 V 2.35 Z"
     style="fill:#654ff0"
     id="path1-57" /><path
     d="m 8.485,17.4 h 1.85 l 1.265,6.723 h 0.023 L 13.14,17.4 h 1.731 l 1.371,6.81 h 0.027 l 1.44,-6.81 h 1.815 l -2.358,9.885 h -1.837 l -1.36,-6.728 h -0.036 l -1.456,6.728 h -1.87 z m 13.124,0 h 2.917 l 2.9,9.885 h -1.911 l -0.63,-2.2 h -3.323 l -0.486,2.2 h -1.859 z m 1.11,2.437 -0.807,3.627 h 2.512 L 23.5,19.832 Z"
     style="fill:#ffffff"
     id="path2-6" /></g><g
   id="g21"
   transform="matrix(0.07866519,0,0,0.07866519,36.132857,3.2644432)"><g
     id="g5" /><g
     id="g6"
     transform="translate(43.229738,10.515342)"><path
       style="fill:url(#linearGradient1478);fill-opacity:1"
       d="m 60.510156,6.3979729 c -4.583653,0.021298 -8.960939,0.4122177 -12.8125,1.09375 C 36.35144,9.4962267 34.291407,13.691825 34.291406,21.429223 v 10.21875 h 26.8125 v 3.40625 h -26.8125 -10.0625 c -7.792459,0 -14.6157592,4.683717 -16.7500002,13.59375 -2.46182,10.212966 -2.5710151,16.586023 0,27.25 1.9059283,7.937852 6.4575432,13.593748 14.2500002,13.59375 h 9.21875 v -12.25 c 0,-8.849902 7.657144,-16.656248 16.75,-16.65625 h 26.78125 c 7.454951,0 13.406253,-6.138164 13.40625,-13.625 v -25.53125 c 0,-7.266339 -6.12998,-12.7247775 -13.40625,-13.9375001 -4.605987,-0.7667253 -9.385097,-1.1150483 -13.96875,-1.09375 z m -14.5,8.2187501 c 2.769547,0 5.03125,2.298646 5.03125,5.125 -2e-6,2.816336 -2.261703,5.09375 -5.03125,5.09375 -2.779476,-1e-6 -5.03125,-2.277415 -5.03125,-5.09375 -1e-6,-2.826353 2.251774,-5.125 5.03125,-5.125 z"
       id="path1948"
       transform="translate(3.9725321e-6)" /><path
       style="fill:url(#linearGradient1475);fill-opacity:1"
       d="m 91.228906,35.054223 v 11.90625 c 0,9.230755 -7.825895,16.999999 -16.75,17 h -26.78125 c -7.335833,0 -13.406249,6.278483 -13.40625,13.625 v 25.531247 c 0,7.26634 6.318588,11.54032 13.40625,13.625 8.487331,2.49561 16.626237,2.94663 26.78125,0 6.750155,-1.95439 13.406253,-5.88761 13.40625,-13.625 V 92.897973 h -26.78125 v -3.40625 h 26.78125 13.406254 c 7.79246,0 10.69625,-5.435408 13.40624,-13.59375 2.79933,-8.398886 2.68022,-16.475776 0,-27.25 -1.92578,-7.757441 -5.60387,-13.59375 -13.40624,-13.59375 z m -15.0625,64.65625 c 2.779478,3e-6 5.03125,2.277417 5.03125,5.093747 -2e-6,2.82635 -2.251775,5.125 -5.03125,5.125 -2.76955,0 -5.03125,-2.29865 -5.03125,-5.125 2e-6,-2.81633 2.261697,-5.093747 5.03125,-5.093747 z"
       id="path1950"
       transform="translate(3.9725321e-6)" /><ellipse
       style="opacity:0.44382;fill:url(#radialGradient1480);fill-opacity:1;fill-rule:nonzero;stroke:none;stroke-width:20;stroke-miterlimit:4;stroke-dasharray:none;stroke-opacity:1"
       id="path1894"
       transform="matrix(0.73406,0,0,0.809524,16.24958,27.00935)"
       cx="61.518883"
       cy="132.28575"
       rx="48.948284"
       ry="8.6066771" /></g></g><g
   style="clip-rule:evenodd;fill-rule:evenodd;stroke-linejoin:round;stroke-miterlimit:2"
   id="g4"
   transform="matrix(0.0191457,0,0,0.0191457,16.579417,50.452858)"><g
     transform="matrix(1.02631,0,0,1.02631,-0.525826,-0.525138)"
     id="g1">
        <path
   d="m 37.965,296.635 c -11.524,-24.869 -17.956,-52.57 -17.956,-81.762 0,-7.555 0.43,-15.01 1.269,-22.342 0.851,-7.408 2.112,-14.679 3.758,-21.789 9.25,-39.89 30.765,-75.102 60.348,-101.441 24.849,-22.094 55.29,-37.857 88.659,-45.002 13.169,-2.813 26.829,-4.293 40.832,-4.293 4.908,0.005 9.852,0.194 14.826,0.573 23.584,1.801 45.87,7.738 66.203,17.046 16.401,7.518 31.582,17.245 45.16,28.801 34.106,29.054 57.893,69.527 65.803,114.943 1.89,10.886 2.875,22.081 2.875,33.504 -0.004,4.916 -0.194,9.867 -0.574,14.848 -1.437,18.824 -5.509,36.821 -11.828,53.658 -8.819,23.451 -22.032,44.757 -38.634,62.915 -21.593,22.048 -49.033,31.858 -71.951,31.45 -16.665,-0.297 -32.971,-6.928 -44.239,-16.63 -16.096,-13.861 -22.598,-29.705 -24.826,-47.385 -0.554,-4.395 -0.229,-16.371 2.058,-24.663 1.705,-6.181 6.029,-18.118 12.352,-23.339 -7.397,-3.186 -16.917,-10.123 -19.918,-13.453 -0.737,-0.819 -0.642,-2.1 0.018,-2.982 0.661,-0.882 1.82,-1.23 2.857,-0.857 6.359,2.183 14.104,4.336 22.27,5.702 10.74,1.795 24.097,4.057 37.628,4.722 32.991,1.62 67.452,-13.189 78.148,-42.652 10.695,-29.463 6.546,-58.605 -31.824,-76.086 -38.37,-17.481 -56.094,-38.265 -87.096,-50.801 -20.249,-8.189 -42.787,-3.328 -65.926,9.46 -62.326,34.443 -118.165,143.268 -92.424,244.093 0.368,1.379 -0.253,2.832 -1.505,3.519 -1.172,0.644 -2.615,0.46 -3.587,-0.43 -7.491,-8.231 -14.287,-17.105 -20.296,-26.529 -4.649,-7.294 -8.822,-14.909 -12.48,-22.798 z"
   id="path1-4" />
    </g><g
     transform="matrix(0.0920293,0.00428099,-0.00428099,0.0920293,-28.1272,-500.301)"
     id="g2">
        <path
   d="m 3053.7,5296.9 c 1317.95,0 2387.96,1070.01 2387.96,2387.96 0,1317.95 -1070.01,2387.94 -2387.96,2387.94 -1317.95,0 -2387.96,-1069.99 -2387.96,-2387.94 0,-1317.95 1070.01,-2387.96 2387.96,-2387.96 z m 691.33,2846.32 c -150.91,-0.4 -300.72,-18.65 -421.16,-33.07 -91.58,-10.97 -178.88,-30.92 -250.77,-51.92 -11.74,-3.61 -24.45,0.86 -31.35,11.01 -6.89,10.16 -7.29,24.47 1.34,33.2 35.12,35.5 144.65,107.77 228.61,139.39 -67.66,61.37 -109.6,196.45 -125.37,266.11 -21.16,93.46 -18.58,226.89 -10.14,275.51 33.95,195.59 114.5,368.54 300.8,514.45 130.41,102.13 315.29,167.48 500.89,162.16 256.13,-7.35 557.6,-131.55 786.77,-389.89 298.6,-359.59 483.87,-817.72 498.82,-1320.67 C 5259.08,6551.9 4315.7,5550.69 3118.1,5515.08 1920.51,5479.47 919.301,6422.86 883.689,7620.45 c -18.443,620.21 225.681,1187.76 631.741,1595.75 11.3,11.19 28.78,13.23 42.35,4.94 13.57,-8.29 19.73,-24.78 14.92,-39.94 -338.63,-1108.65 226.41,-2348.56 902.14,-2764.1 250.87,-154.28 499.15,-220.04 728.72,-139.4 351.48,123.45 559.47,345.56 995.5,520.23 436.03,174.66 497.29,496.81 393.52,830.21 -103.77,333.4 -479.58,516.03 -847.55,515.08 z M 2917.17,6442.51 c -139.42,17.46 -223.24,194.93 -230.09,306.91 -6.9,111.97 56.95,293.28 239.11,281.21 213.33,-14.14 269.7,-199.93 238.05,-375.69 -23.76,-132 -130.51,-227.04 -247.07,-212.43 z"
   style="fill:#ffffff"
   id="path2-8" />
    </g><g
     transform="matrix(7.12289,0.543899,-0.543899,7.12289,-4867.49,-1040.55)"
     id="g3">
        <path
   d="m 721.316,105.751 c 1.497,-0.233 2.909,0.952 3.266,2.644 0.476,2.254 -0.18,4.67 -2.924,4.934 -2.344,0.226 -3.236,-2.087 -3.19,-3.533 0.045,-1.446 1.057,-3.766 2.848,-4.045 z"
   id="path3" />
    </g></g></svg>
